/* XPM */
static char *d4910b5180614037926ff5d382def782kUBMvsNwbMvkr9px[] = {
/* columns rows colors chars-per-pixel */
"32 32 7 1 ",
"  c #00B0D0",
". c #186F59",
"X c #186F59",
"o c #081425",
"O c #1A4466",
"+ c #262B44",
"@ c #5A6988",
/* pixels */
" .. .@@O+oo++++++++++oo++O@ .. .",
". . .@@O+o+++O@@@OO++++++O@ . ..",
". .. @@O+++OO@@@@@@@OO++++@. .. ",
". .. OO++++OO@@@@@@@@@+++OO. . .",
" .. .++++o+OO@@@@@@@@@+++O+ . ..",
". . .+o+oo+++OO@@@@@@O+++++.. ..",
" .. .+++++++++++O@@OO+++o++.....",
" .. .O+o+++OOOOOO+++oooooo+.  . ",
". . .++o+++O@@@O@O++ooo++++.. ..",
". .. +oo+++O@@@@O++++++++++. .. ",
" .. .+o+++++OOOOO+++++OOOOO.   .",
". . .++++o++++++++oo+++O@@O ... ",
". .. OOO+oo+++++++oooo++OO@ . ..",
" .. .@@O+oo++++++++++oo++O@ .. .",
". . .@@O+o+++O@@@OO++++++O@ . ..",
". .. @@O+++OO@@@@@@@OO++++@. .. ",
". .. OO++++OO@@@@@@@@@+++OO. . .",
" .. .++++o+OO@@@@@@@@@+++O+ . ..",
". . .+o+oo+++OO@@@@@@O+++++.. ..",
" .. .+++++++++++O@@OO+++o++.....",
". .. +OOO++o+++++OO++++o+++.  ..",
". . .O@@@O++o++++O+++ooo++O.  . ",
". .. OO@@@O++o++++++++++o++.. . ",
". . .O@@@@@O+o+++oo+OOOO+++.   .",
" .. .O@@@@@O+++O++o+O@@@O++ .  .",
". . .O@@@@OO+++OO+++O@@@O++  . .",
". .. OO@@@OO+++OO+++OOO@O++.. . ",
" .. .OO+++++oo+OOO+++++OO++ . ..",
". . .++oooooooo+++ooooo+++o.  . ",
". .. ooooooo+++ooooo+++o++o... .",
" .. .++oooooooo+++oo++ooo++. .. ",
". .. ++oooooooo+++ooooo+++o .. ."
};

