/* XPM */
static char *d4910b5180614037926ff5d382def782kUBMvsNwbMvkr9px[] = {
/* columns rows colors chars-per-pixel */
"32 32 7 1 ",
"  c #00B0D0",
". c #186F59",
"X c #186F59",
"o c #081425",
"O c #1A4466",
"+ c #262B44",
"@ c #5A6988",
/* pixels */
". .. ++oooooooo+++ooooo+++o .. ."
" .. .++oooooooo+++oo++ooo++++. .",
"++++o+OO@@@@@@@@@+++O++++. . .. ",
"+o+oo+++OO@@@@@@O++++++++@o. .  ",
"+++++++++++O@@OO+++o++++0o@.  . ",
"O+o+++OOOOOO+++oooooo++++o+. .  ",
"++o+++O@@@O@O++ooo++++++0o@. ...",
"+oo+++O@@@@O+++++++++++++o+. . .",
"+o+++++OOOOO+++++OOOOO+++o+...  ",
"++++o++++++++oo+++O@@O++0o@. . .",
"OOO+oo+++++++oooo++OO@+++@0. .. ",
"@@O+oo++++++++++oo++O@++0o@. . .",
"@@O+o+++O@@@OO++++++O@+++o+. .. ",
"@@O+++OO@@@@@@@OO++++@++0o@. .. ",
"OO++++OO@@@@@@@@@+++OO++0o@.. . ",
"++++o+OO@@@@@@@@@+++O+++++o. ...",
"+o+oo+++OO@@@@@@O++++++++@0. .. ",
"+++++++++++O@@OO+++o++++0o+. .. ",
"+OOO++o+++++OO++++o++++++@o. . .",
"O@@@O++o++++O+++ooo++O+++@o. .  ",
"OO@@@O++o++++++++++o++++0o@. . .",
"O@@@@@O+o+++oo+OOOO++++++@0. ...",
"O@@@@@O+++O++o+O@@@O++++0o@.. . ",
"O@@@@OO+++OO+++O@@@O+++++o+. .  ",
"OO@@@OO+++OO+++OOO@O++++0o@...  ",
"OO+++++oo+OOO+++++OO+++++o+.  . ",
"++oooooooo+++ooooo+++o+++@o.. . ",
"ooooooo+++ooooo+++o++o++0o@. .. ",
"++oooooooo+++ooooo+++o+++@o.. . ",
"ooooooo++..........  .... ....  ",
"  .....    ........     . ...   ",
".....        ..........   ......",
};
