/* XPM */
static char *result[] = {
/* columns rows colors chars-per-pixel */
"32 32 8 1 ",
"  c #00B0D0",
". c #186F59",
"X c #186F59",
"o c #081425",
"O c #1A4466",
"+ c #262B44",
"@ c #5A6988",
"# c white",
/* pixels */
"                                ",
"........ .........   ...  ......",
"    .... ..........  .... ....  ",
"  .....    ........     . ...   ",
".....        ..........   ......",
"XXXXXXXX  XXXXXXXXXXXXXX oXXXXXX",
"oXXXXXXXoXXXXoXXXXXXXXXXXoXXXXXX",
"OOOOOO+o+++OOOOOO+++oooooo++OOO+",
"+++++++o+++O@@@O@O++ooo+++++OOOO",
"++++++oo+++O@@@@O++++++++++++O++",
"++++++o+++++OOOOO+++++OOOOO+++oo",
"o++OO++++o++++++++oo+++O@@O++ooo",
"+OO@@OOO+oo+++++++oooo++OO@O++oo",
"O@@@@@@O+oo++++++++++oo++O@@O+++",
"O@@@@@@O+o+++O@@@OO++++++O@@O+++",
"O@@@@@@O+++OO@@@@@@@OO++++@OO+++",
"OOOOOOO++++OO@@@@@@@@@+++OOO++++",
"+++++++++o+OO@@@@@@@@@+++O+++oo+",
"+oooo+o+oo+++OO@@@@@@O++++++oooo",
"++ooo+++++++++++O@@OO+++o+++++oo",
"+++o++OOO++o+++++OO++++o+++OOO++",
"O++++O@@@O++o++++O+++ooo++OO@@OO",
"OO+o+OO@@@O++o++++++++++o++O@@@@",
"@O+o+O@@@@@O+o+++oo+OOOO+++OO@@@",
"OO+++O@@@@@O+++O++o+O@@@O+++O@@@",
"O++++O@@@@OO+++OO+++O@@@O+++O@@@",
"O+++OOO@@@OO+++OO+++OOO@O++++O@@",
"O+oo+OO+++++oo+OOO+++++OO++o+OOO",
"+++oo++oooooooo+++ooooo+++ooo+++",
"oooooooooooooooooooooooooooooooo",
"     X        X        X      X ",
"XXXXXXXXXXXXXXXXXXXXXXXXXXXXXXXX"
};
