/* XPM */
static char *result[] = {
/* columns rows colors chars-per-pixel */
"32 32 36 1 ",
"  c #2E1E22",
". c #323234",
"X c #45321D",
"o c #42422E",
"O c #534721",
"+ c #5C572C",
"@ c #6C4F2D",
"# c #444444",
"$ c gray31",
"% c #545456",
"& c #616045",
"* c #6D6D6E",
"= c gray46",
"- c gray50",
"; c #964F00",
": c #857E30",
"> c #A26E46",
", c #7F8164",
"< c #B1A734",
"1 c #B28F5F",
"2 c #B38C64",
"3 c #B69866",
"4 c #B99A6E",
"5 c #BC9F72",
"6 c #B7A876",
"7 c #BEA877",
"8 c #CBC266",
"9 c #979797",
"0 c #A6AA8C",
"q c #C3B380",
"w c #E3DDA3",
"e c gray85",
"r c #D9D9DD",
"t c white",
"y c #0099DB",
"! c #00ffff",
/* pixels */
"yyyyyyyyyyyyyyyyyyyyyyyyyyyyyyyy",
"yy!!!yyyyyyyoooooooooyyyyyyyyyyy",
"yyyyyyyyyyoo&&,,&,,&&ooyyyyyyyyy",
"yyyyyyyyyo&,&,,,&,,,&,&oyyyyyyyy",
"yyyyyyyyo&,,,,0,,,0,,,,&oyyyyyyy",
"yyyyyyyo&,,0,,0,,,0,,0,,&oyyyyyy",
"yyyyyyyo&,,,0,,,&,,,0,,,&oyyyyyy",
"yyyyyyo&,&,&&&,,&,,&&&,&,&oyyyyy",
"yyyyyyo&,,&33q&&&&&q33&,,&oyyyyy",
"yyyyyyo&,,33qqqqqqqqq33,,&o!!!yy",
"yyyyyyo&&,3qqqqqqqqqqq3,&&oyyyyy",
"yyyyyyoX&,3qqqqqqqq4qq3,&Xoyyyyy",
"yyyyyyX>&>3qqqqqq727qq3>&>Xyyyyy",
"yyyyyyX>&>3OO6qq5276OO3>&>Xyyyyy",
"yyyyyyyXX@3e O64256O e3@XXyyyyyy",
"yyyyyyyyX@3t r524qqr t3@Xyyyyyyy",
"yyyyyyyyyX>3;;25qqq;;3>Xyyyyyyyy",
"yyyyyyy+..X>15qqqqqq3>X..+yyyyyy",
"yyyy!!+:##.X@>33333>@X.##:+yyyyy",
"yyyyy+<8w###XXXXXXXXX###w8<+yyyy",
"yyyyy+:88w%%%%*<<<*%%%%w88:+yyyy",
"yyyyyy+::++%%*w888w*%%++::+yyyyy",
"yyyyy+<w8<+<88<:::<88<+<8w<+yyyy",
"yyyyy+88<:+++::<8<::+++:<88+yyyy",
"yyyyy$99:++::++:::++::++:99$yyyy",
"yyyyy$--++:<w<:www:<w<:++--$yyyy",
"yyyyy.$$.+:8w+<8w8<+w8:+.$$.yyyy",
"yyyyy.**.#+8+:+<8<+:+8+#.**.yyyy",
"yyyyy.**.##+:w<+++<w:+##.**.yyyy",
"yyyyyy.*...$--=$.$=--$...*.yyyyy",
"yyyyyyy.yyy$99-$y$-99$yyy.yyyyyy",
"yyyyyyyyyyyy$$$yyy$$$yyyyyyyyyyy"
};
