/* XPM */
static char *_c2b8df32c9b4b4ee8ee669407a50f2dBQz8fBMTYUNsxhta[] = {
/* columns rows colors chars-per-pixel */
"32 32 38 1 ",
"  c None",
". c #2E1E22",
"X c #323234",
"o c #45321D",
"O c #42422E",
"+ c #534721",
"@ c #5C572C",
"# c #6C4F2D",
"$ c #70482A",
"% c #444444",
"& c gray31",
"* c #545456",
"= c #616045",
"- c #6D6D6E",
"; c gray46",
": c gray50",
"> c #964F00",
", c #9A5838",
"< c #857E30",
"1 c #A26E46",
"2 c #7F8164",
"3 c #B1A734",
"4 c #AE8358",
"5 c #B38C64",
"6 c #B69866",
"7 c #B19669",
"8 c #B39E6E",
"9 c #B99A6E",
"0 c #BC9F72",
"q c #BEA877",
"w c #CBC266",
"e c #979797",
"r c #A6AA8C",
"t c #C3B380",
"y c #E3DDA3",
"u c gray85",
"i c #D9D9DD",
"p c white",
/* pixels */
"                                ",
"            OOOOOOOOO           ",
"          OO==22222==OO         ",
"         O=2222====222=O        ",
"        O=2rr222222===2=O       ",
"        =2r2=2rr2222r2=2=O      ",
"        =22=2r2==22=2r2=2O      ",
"        =22=22=22rr2=22=2=O     ",
"        o==6ttttt2222=2=2=O     ",
"        o16tttttt==22=22==O     ",
"        o66ttttt222=2=22==O     ",
"        o6ttt9tt222==2=22=O     ",
"        o6tq5qttt22oo2=22=O     ",
"        o6058++tt2o6to=2==O     ",
"        o457+.utt26#to=2==O     ",
"        o,9ti.ptt2t#6o====O     ",
"        o$6t>>tttt61o====O      ",
"         o16ttttt611====O       ",
"          o#1166611##O=O        ",
"           oooooooXXXXO         ",
"          @<3*------*%X         ",
"          @<3w--**3ww*%X        ",
"          @@<wyw3@@@@-*%X       ",
"          @<3<<@@&wy<--%X       ",
"           @@<<<<&ww3--*X       ",
"           @3wy<y&ee:--*%X      ",
"           @3ww@w&ee;---%X      ",
"           @<w@@33&&&X--%X      ",
"            @@@<@@<&XX--%X      ",
"              &:e:;&XX*-%X      ",
"              &ee:;& X*-X       ",
"               &&&&   XX        "
};
