/* XPM */
static char *_fe29e59cd2c436cd197e686cf0f480etL04Otu3M178A2XD[] = {
/* columns rows colors chars-per-pixel */
"32 32 37 1 ",
"  c None",
". c #2E1E22",
"X c #323234",
"o c #45321D",
"O c #42422E",
"+ c #534721",
"@ c #5C572C",
"# c #6C4F2D",
"$ c #70482A",
"% c #444444",
"& c gray31",
"* c #545456",
"= c #616045",
"- c #6D6D6E",
"; c gray46",
": c gray50",
"> c #964F00",
", c #9A5838",
"< c #857E30",
"1 c #A26E46",
"2 c #A97850",
"3 c #7F8164",
"4 c #B1A734",
"5 c #AE8358",
"6 c #B0875C",
"7 c #B69866",
"8 c #BC9F72",
"9 c #B7A876",
"0 c #BEA877",
"q c #CBC266",
"w c #979797",
"e c #A6AA8C",
"r c #C3B380",
"t c #E3DDA3",
"y c gray85",
"u c #D9D9DD",
"i c white",
/* pixels */
"                                ",
"            OOOOOOOOO           ",
"          OO==33333==OO         ",
"         O=333====3333=O        ",
"        O=3===333333ee3=O       ",
"       O=3=3e3333ee3=3e3=       ",
"       O3=3e3=33==3e3=33=       ",
"      O=3=33=3ee33=33=33=       ",
"      O=3=3=3333rrrrr7==o       ",
"      O==33=33==rrrrrr71o       ",
"      O==33=3=333rrrrr77o       ",
"      O=33=3==333rrrrrr7o       ",
"      O=33=3oo33rrrrrrr7o       ",
"      O==3=or7o3rr++9rr7o       ",
"      O==3=or#73rry.+9r5o       ",
"      O====o7#r3rri.ur8,o       ",
"       O====o17rrrr>>02$o       ",
"        O====117rrrr061o        ",
"         O=O##1177711#o         ",
"          OXXXXooooooo          ",
"          X%*------*4<@         ",
"         X%*qq4**--q4<@         ",
"        X%*-@@@@4qtq<@@         ",
"        X%--<tq&@@<<4<@         ",
"        X*--4qq&<<<<@@          ",
"       X%*--:ww&t<tq4@          ",
"       X%---;ww&q@qq4@          ",
"       X%--X&&&44@@q<@          ",
"       X%--XX&<@@<@@@           ",
"       X%-*XX&;:w:&             ",
"        X-*X &;:ww&             ",
"         XX   &&&&              "
};
