/* XPM */
static char *result[] = {
/* columns rows colors chars-per-pixel */
"32 32 5 1 ",
"  c #0099DB",
". c #0069AB",
"X c #00397B",
"o c #152340",
"O c white",
/* pixels */
"                                ",
"                                ",
"      ......           ....     ",
"    ...........     X.......    ",
"   .................X.......    ",
"  ..................X.......    ",
"  ...X........X.....XX.......   ",
"  ...X.X......X.....XX.......   ",
"  ...XXXXX...XX..XXXXXX.XX...   ",
"   .XXXXXXXXXXXXXXXXXXXXXXX..   ",
"   .XXXXXXXXXXXXXXXXXXXXXXXX.   ",
"   .XXXXXXXXXXXXXXXXXXXXXXXXX   ",
"   .XXXXooXXXXXXXXXXXXXXXXXXX   ",
"    XXoooooooXXXoooooooXXXXXX   ",
"    XoooooooooooooooooooooXXX   ",
"    XoooooooooooooooooooooXXX   ",
"    ooooooooooooooooooooooooX   ",
"    ooooooooooooooooooooooooo   ",
"   oooooooooooooooooooooooooo   ",
"  oooooooooooooooooooooooooo    ",
"  ooooooooooooooooooooooooo     ",
"  ooooooooooooooooooooooooo     ",
"   ooooooooooooooooooooooo      ",
"   ooooooooooooooooooooooo      ",
"   oooooooooooooooooooooooo     ",
"   oooooooooooooooooooooooo     ",
"   ooooooooooooooooooooooo      ",
"   ooooooooooooooooooooo        ",
"   oooooooooooooooooooo         ",
"        ooooooo                 ",
"                                ",
"                                "
};
