/* XPM */
static char *result[] = {
/* columns rows colors chars-per-pixel */
"32 32 5 1 ",
"  c #262B44",
". c #3A4466",
"X c #5A6988",
"; c #00ffff",
"o c #0099DB",
/* pixels */
"oooooooooooooooooooooooooooooooo",
"oooooooooooooooooooo;;;ooooooooo",
"oooooooooooooooooooooooooooooooo",
"oo;;;ooooooooooooooooooooooooooo",
"oooooooooooooooooooo.ooooooooooo",
"ooooooooooooooooooXXXooooooooooo",
"oooooooooooooooooXXXXXXooooooooo",
"ooooooooooooooooXXXXXXX oooooooo",
"oooooooooooooooo.XXXXX  oooooooo",
"oooooooooooooooo..  ..  .ooooooo",
"oooooooooooooooo.   ..  .ooooooo",
"oooooooooooooooXX   ..  .ooooooo",
"oooooooooooooooXX   .. ..ooooooo",
"ooooooooooooooXXXXX .. ..ooooooo",
"oooooooooooooo. XXXX.....ooooooo",
"oooooooooooooo. .... ....ooooooo",
"oooooooooXXXo.. .... ....ooooooo",
"ooooo;;;oXXXX.  .... .....oooooo",
"ooooooooXXXXXX  ....  . ..oooooo",
"ooooooooXXXXXXX  ...  . ..oooooo",
"ooooooo..XXXXXX   ..    ..oooooo",
"ooooooo...XXXXXX  ..    .. ooooo",
"oooooo...... .... ..       ooooo",
"oooooo.. ...  ..  ..       ooooo",
"oooooo.  ..                ooooo",
"oooooo   ..              ooooooo",
"ooooooooo        ooooooooooooooo",
"oooooooooooooooooooooooooooooooo",
"oooooooooooooooooooooooooooooooo",
"oooooooooooooooooooooo;;;ooooooo",
"oooooooooooooooooooooooooooooooo",
"oooooooooooooooooooooooooooooooo"
};
