/* XPM */
static char *result[] = {
/* columns rows colors chars-per-pixel */
"32 32 5 1 ",
"  c #124E89",
". c #0099DB",
"X c #2CE8F5",
"o c white",
"O c #0099DB",
/* pixels */
"OOOOOOOOOOOOOOOOOOOOOOOOOOOOOOOO",
"OOOOOOOOOOOOOOOoOOOOOOOOOOOOOOOO",
"OOOOOOOOOOOOOOooOOOOOOOOOOOOOOOO",
"OOOOOOOOOOOOOoooOOOOOOOOOOOOOOOO",
"OOOOOOOOOOOOooo.XOOOOOOOOOOOOOOO",
"OOOOOOOOOOOoooo.XoOOOOOOOOOOOOOO",
"OOOOOOOOOOOXooX.XoOOOOOOOOOOOOOO",
"OOOOOOOOOOOXooX.XoOOOOOOOOOOOOOO",
"OOOOOOOOOOOXoX..XoOOOOOOOOOOOOOO",
"OOOOOOoOOOOXoX..XoOOOOOOOOOOOOOO",
"OOOOOooooOOXooooXoOOOOOOOOOOOOOO",
"OOOOOoooooOXooo.XoOOOOOooXOOOOOO",
"OOOOOooXXXXXoo..XoOOOoooooXXOOOO",
"OOOOOoX..XXX... XoOOoooooXXOOOOO",
"OOOOOoXX..XX... XoOooXXXXXXOOOOO",
"OOOOOOoXX..XX.  XoooXXXXXXOOOOOO",
"OOOOOOoXX...XX. XooXXX..XXOOOOOO",
"OOOOOOOXXX...XX.ooXXX..XXOOOOOOO",
"OOOOOOOOXX.....XXXXX...XOOOOOOOO",
"OOOOOOOOOXX.. ..XXX...XOOOOOOOOO",
"OOOOOOOOOXX..   X....XOOOOOOOOOO",
"OOOOOOOOOXX..   ....XOOOOOOOOOOO",
"OOOOOOOOOOXX..    .XOOOOOOOOOOOO",
"OOOOOOOOOOXX.    .XOOOOOOOOOOOOO",
"OOOOOOOOOOX.    ..OOOOOOOOOOOOOO",
"OOOOOOOOOOX.    .OOOOOOOOOOOOOOO",
"OOOOOOOOOOO.....OOOOOOOOOOOOOOOO",
"OOOOOOOOOOOOOOOOOOOOOOOOOOOOOOOO",
"OOOOOOOOOOOOOOOOOOOOOOOOOOOOOOOO",
"OOOOOOOOOOOOOOOOOOOOOOOOOOOOOOOO",
"OOOOOOOOOOOOOOOOOOOOOOOOOOOOOOOO",
"OOOOOOOOOOOOOOOOOOOOOOOOOOOOOOOO"
};
